<svg id="vector" xmlns="http://www.w3.org/2000/svg" width="512" height="512" viewBox="0 0 512 512"><path fill="#F7C546" d="M434.926,187.62c0,-29.651 -11.547,-57.528 -32.514,-78.494c-20.967,-20.967 -48.843,-32.514 -78.494,-32.514H187.83c-29.651,0 -57.527,11.547 -78.494,32.514c-20.967,20.966 -32.514,48.843 -32.514,78.494v136.089c0,29.65 11.547,57.527 32.514,78.494s48.843,32.514 78.494,32.514h136.088c29.651,0 57.527,-11.547 78.494,-32.514s32.514,-48.844 32.514,-78.494V187.62z" id="path_0"/><path fill="#00000000" d="M449.926,323.709c0,69.592 -56.416,126.008 -126.008,126.008H187.83c-69.592,0 -126.008,-56.416 -126.008,-126.008V187.62c0,-69.592 56.416,-126.008 126.008,-126.008h136.088c69.592,0 126.008,56.416 126.008,126.008V323.709z" stroke-linejoin="round" stroke-width="10" stroke="#000000" stroke-linecap="round" id="path_1"/><path fill="#00000000" d="M140.134,173.943L193.468,227.277" stroke-linejoin="round" stroke-width="10" stroke="#000000" stroke-linecap="round" id="path_2"/><path fill="#00000000" d="M193.468,173.943L140.134,227.277" stroke-linejoin="round" stroke-width="10" stroke="#000000" stroke-linecap="round" id="path_3"/><path fill="#00000000" d="M318.28,173.943L371.614,227.277" stroke-linejoin="round" stroke-width="10" stroke="#000000" stroke-linecap="round" id="path_4"/><path fill="#00000000" d="M371.614,173.943L318.28,227.277" stroke-linejoin="round" stroke-width="10" stroke="#000000" stroke-linecap="round" id="path_5"/><path fill="#00000000" d="M166.801,329.129L344.947,329.129" stroke-linejoin="round" stroke-width="10" stroke="#000000" stroke-linecap="round" id="path_6"/></svg>