<svg width="24" height="24" viewBox="0 0 24 24" fill="none" xmlns="http://www.w3.org/2000/svg">
<path d="M9 5.25061C8.58579 5.25061 8.25 5.5864 8.25 6.00061C8.25 6.41482 8.58579 6.75061 9 6.75061H15C15.4142 6.75061 15.75 6.41482 15.75 6.00061C15.75 5.5864 15.4142 5.25061 15 5.25061H9Z" fill="#000000"/>
<path fill-rule="evenodd" clip-rule="evenodd" d="M11.9425 1.25061C9.86994 1.2506 8.23716 1.25058 6.96128 1.42398C5.65122 1.60202 4.60609 1.97529 3.78484 2.80545C2.96469 3.63448 2.59692 4.68763 2.4213 6.00802C2.24998 7.29612 2.24999 8.94523 2.25 11.0417V16.1396C2.24999 17.6472 2.24998 18.8408 2.34601 19.7394C2.44091 20.6275 2.64447 21.4286 3.22584 21.9644C3.69226 22.3943 4.28211 22.6653 4.91165 22.7373C5.69912 22.8274 6.43439 22.4514 7.15868 21.9383C7.89163 21.4192 8.78075 20.6327 9.90254 19.6405L9.93905 19.6082C10.4591 19.1482 10.8112 18.8378 11.105 18.623C11.3889 18.4154 11.5623 18.3403 11.7084 18.3109C11.9009 18.2721 12.0991 18.2721 12.2916 18.3109C12.4377 18.3403 12.6111 18.4154 12.895 18.623C13.1888 18.8378 13.5409 19.1482 14.061 19.6082L14.0975 19.6406C15.2193 20.6327 16.1084 21.4192 16.8413 21.9383C17.5656 22.4514 18.3009 22.8274 19.0883 22.7373C19.7179 22.6653 20.3077 22.3943 20.7742 21.9644C21.3555 21.4286 21.5591 20.6275 21.654 19.7394C21.75 18.8408 21.75 17.6472 21.75 16.1397V11.0417C21.75 8.94523 21.75 7.29611 21.5787 6.00802C21.4031 4.68763 21.0353 3.63448 20.2152 2.80545C19.3939 1.97529 18.3488 1.60202 17.0387 1.42398C15.7628 1.25058 14.1301 1.2506 12.0575 1.25061H11.9425ZM4.8512 3.86038C5.34797 3.35823 6.02251 3.06535 7.16328 2.91032C8.32645 2.75224 9.85725 2.75061 12 2.75061C14.1427 2.75061 15.6736 2.75224 16.8367 2.91032C17.9775 3.06535 18.652 3.35823 19.1488 3.86038C19.6467 4.36364 19.9379 5.0488 20.0918 6.20579C20.2484 7.38353 20.25 8.93284 20.25 11.0981V16.0915C20.25 17.6578 20.249 18.7708 20.1625 19.58C20.0739 20.4094 19.9104 20.7206 19.7576 20.8614C19.5238 21.0769 19.2298 21.2113 18.9178 21.247C18.7182 21.2699 18.3835 21.1926 17.7083 20.7143C17.0497 20.2478 16.2211 19.5163 15.0547 18.4847L15.0286 18.4615C14.5413 18.0305 14.1372 17.6731 13.7804 17.4122C13.4074 17.1394 13.0312 16.9298 12.5878 16.8404C12.1998 16.7623 11.8002 16.7623 11.4122 16.8404C10.9688 16.9298 10.5926 17.1394 10.2196 17.4122C9.86283 17.6731 9.45871 18.0305 8.97146 18.4615L8.94527 18.4847C7.77887 19.5163 6.95026 20.2478 6.29165 20.7143C5.61646 21.1926 5.28182 21.2699 5.08218 21.247C4.77019 21.2113 4.47617 21.0769 4.24237 20.8614C4.08963 20.7206 3.92614 20.4094 3.83752 19.58C3.75104 18.7708 3.75 17.6578 3.75 16.0915V11.0981C3.75 8.93284 3.75156 7.38353 3.90821 6.20579C4.06209 5.0488 4.35333 4.36365 4.8512 3.86038Z" fill="#000000"/>
</svg>
