<svg width="24" height="24" viewBox="0 0 24 24" fill="none" xmlns="http://www.w3.org/2000/svg">
<path fill-rule="evenodd" clip-rule="evenodd" d="M12 2.75061C6.89137 2.75061 2.75 6.89198 2.75 12.0006C2.75 17.1092 6.89137 21.2506 12 21.2506C17.1086 21.2506 21.25 17.1092 21.25 12.0006C21.25 6.89198 17.1086 2.75061 12 2.75061ZM1.25 12.0006C1.25 6.06355 6.06294 1.25061 12 1.25061C17.9371 1.25061 22.75 6.06355 22.75 12.0006C22.75 17.9377 17.9371 22.7506 12 22.7506C6.06294 22.7506 1.25 17.9377 1.25 12.0006ZM11.9424 6.25061H12.0576C12.9512 6.25057 13.7064 6.25053 14.3079 6.34249C14.9548 6.4414 15.5277 6.66012 15.9774 7.17149C16.4149 7.66901 16.5904 8.27928 16.6716 8.9657C16.75 9.62921 16.75 10.4701 16.75 11.5018V14.0862C16.75 14.8262 16.75 15.4361 16.7059 15.9011C16.6635 16.3469 16.569 16.8589 16.2136 17.2274C15.9475 17.5032 15.5976 17.6901 15.2082 17.7402C14.6586 17.811 14.2027 17.5096 13.877 17.25C13.5333 16.9762 13.1249 16.5697 12.6403 16.0875L12.6078 16.0552C12.371 15.8195 12.2302 15.6805 12.1181 15.5883C12.0629 15.5429 12.0325 15.5243 12.0207 15.5179C12.0069 15.5157 11.9931 15.5157 11.9793 15.5179C11.9675 15.5243 11.9371 15.5429 11.8819 15.5883C11.7698 15.6805 11.629 15.8195 11.3922 16.0552L11.3597 16.0875C10.8751 16.5697 10.4667 16.9762 10.123 17.25C9.79726 17.5096 9.34141 17.811 8.79176 17.7402C8.40243 17.6901 8.05246 17.5032 7.78645 17.2274C7.43101 16.8589 7.33649 16.3469 7.29414 15.9011C7.24997 15.4361 7.24999 14.8262 7.25 14.0862V11.5018C7.24998 10.4701 7.24997 9.62921 7.32841 8.9657C7.40956 8.27928 7.58508 7.66901 8.02257 7.17149C8.47226 6.66012 9.04523 6.4414 9.69211 6.34249C10.2936 6.25053 11.0488 6.25057 11.9424 6.25061ZM11.9851 15.515C11.9851 15.515 11.9846 15.5153 11.9836 15.5157L11.9851 15.515ZM12.0149 15.515C12.0149 15.515 12.0154 15.5152 12.0164 15.5156L12.0149 15.515ZM9.91881 7.82526C9.47642 7.8929 9.2851 8.00726 9.149 8.16203C9.00071 8.33067 8.88333 8.58954 8.81804 9.14181C8.75124 9.70682 8.75 10.4585 8.75 11.5494V14.0461C8.75 14.8362 8.75082 15.3739 8.78742 15.7592C8.81873 16.0888 8.86876 16.1835 8.87285 16.1929C8.89864 16.218 8.92347 16.2333 8.9452 16.2422C8.98079 16.2246 9.05763 16.181 9.18822 16.0769C9.45894 15.8612 9.8084 15.515 10.3342 14.9919L10.3559 14.9703C10.5636 14.7635 10.7552 14.5729 10.929 14.4299C11.1163 14.2758 11.3449 14.1233 11.6388 14.0567C11.877 14.0027 12.123 14.0027 12.3612 14.0567C12.6551 14.1233 12.8837 14.2758 13.071 14.4299C13.2448 14.5729 13.4364 14.7635 13.6441 14.9703L13.6658 14.9919C14.1916 15.515 14.5411 15.8612 14.8118 16.0769C14.9424 16.181 15.0192 16.2246 15.0548 16.2422C15.0765 16.2333 15.1014 16.218 15.1272 16.1929C15.1312 16.1835 15.1813 16.0888 15.2126 15.7592C15.2492 15.3739 15.25 14.8362 15.25 14.0461V11.5494C15.25 10.4585 15.2488 9.70682 15.182 9.14181C15.1167 8.58954 14.9993 8.33067 14.851 8.16203C14.7149 8.00726 14.5236 7.8929 14.0812 7.82526C13.6063 7.75266 12.9668 7.75061 12 7.75061C11.0332 7.75061 10.3937 7.75266 9.91881 7.82526Z" fill="#000000"/>
</svg>
