<svg width="24" height="24" viewBox="0 0 24 24" fill="none" xmlns="http://www.w3.org/2000/svg">
<path fill-rule="evenodd" clip-rule="evenodd" d="M8.25 9.00049C8.25 6.92942 9.92893 5.25049 12 5.25049C14.0711 5.25049 15.75 6.92942 15.75 9.00049C15.75 11.0716 14.0711 12.7505 12 12.7505C9.92893 12.7505 8.25 11.0716 8.25 9.00049ZM12 6.75049C10.7574 6.75049 9.75 7.75785 9.75 9.00049C9.75 10.2431 10.7574 11.2505 12 11.2505C13.2426 11.2505 14.25 10.2431 14.25 9.00049C14.25 7.75785 13.2426 6.75049 12 6.75049Z" fill="#1C274C"/>
<path fill-rule="evenodd" clip-rule="evenodd" d="M1.25 12.0005C1.25 6.06343 6.06294 1.25049 12 1.25049C17.9371 1.25049 22.75 6.06343 22.75 12.0005C22.75 17.9375 17.9371 22.7505 12 22.7505C6.06294 22.7505 1.25 17.9375 1.25 12.0005ZM12 2.75049C6.89137 2.75049 2.75 6.89185 2.75 12.0005C2.75 14.5461 3.77827 16.8515 5.4421 18.524C5.6225 17.5509 5.97694 16.6334 6.68837 15.8956C7.75252 14.792 9.45416 14.2505 12 14.2505C14.5457 14.2505 16.2474 14.792 17.3115 15.8956C18.023 16.6334 18.3774 17.5509 18.5578 18.5241C20.2217 16.8516 21.25 14.5461 21.25 12.0005C21.25 6.89185 17.1086 2.75049 12 2.75049ZM17.1937 19.6559C17.0918 18.444 16.8286 17.5558 16.2318 16.9368C15.5823 16.2632 14.3789 15.7505 12 15.7505C9.62099 15.7505 8.41761 16.2632 7.76815 16.9368C7.17127 17.5558 6.90811 18.4439 6.80622 19.6558C8.28684 20.6623 10.0747 21.2505 12 21.2505C13.9252 21.2505 15.7131 20.6623 17.1937 19.6559Z" fill="#1C274C"/>
</svg>
